<svg xmlns="http://www.w3.org/2000/svg" width="121" height="115" viewBox="0 0 121 115">
  <g id="グループ_437" data-name="グループ 437" transform="translate(-1228 -11397.417)">
    <path id="楕円形_6" data-name="楕円形 6" d="M32.5,10A22.5,22.5,0,1,0,55,32.5,22.525,22.525,0,0,0,32.5,10m0-10A32.5,32.5,0,1,1,0,32.5,32.5,32.5,0,0,1,32.5,0Z" transform="translate(1284 11397.417)" fill="#83dcbf"/>
    <path id="楕円形_7" data-name="楕円形 7" d="M25,10A15,15,0,1,0,40,25,15.017,15.017,0,0,0,25,10M25,0A25,25,0,1,1,0,25,25,25,0,0,1,25,0Z" transform="translate(1228 11462.417)" fill="#83dcbf"/>
  </g>
</svg>
