<svg xmlns="http://www.w3.org/2000/svg" width="91" height="115" viewBox="0 0 91 115">
  <g id="グループ_460" data-name="グループ 460" transform="translate(-151 -15932.225)">
    <path id="楕円形_32" data-name="楕円形 32" d="M25,10A15,15,0,1,0,40,25,15.017,15.017,0,0,0,25,10M25,0A25,25,0,1,1,0,25,25,25,0,0,1,25,0Z" transform="translate(192 15997.225)" fill="#ffbd7b"/>
    <path id="楕円形_31" data-name="楕円形 31" d="M32.5,10A22.5,22.5,0,1,0,55,32.5,22.525,22.525,0,0,0,32.5,10m0-10A32.5,32.5,0,1,1,0,32.5,32.5,32.5,0,0,1,32.5,0Z" transform="translate(151 15932.225)" fill="#ffbd7b"/>
  </g>
</svg>
