<svg xmlns="http://www.w3.org/2000/svg" width="204.887" height="263.863" viewBox="0 0 204.887 263.863">
  <g id="グループ_456" data-name="グループ 456" transform="translate(-1431.213 -2425.73)" opacity="0.45">
    <path id="パス_1215" data-name="パス 1215" d="M114.379,61.583A30.366,30.366,0,1,1,84.015,31.218a30.365,30.365,0,0,1,30.365,30.365" transform="translate(1465.734 2445.819)" fill="#2fc996"/>
    <path id="パス_1216" data-name="パス 1216" d="M192.575,43.941A87.594,87.594,0,0,0,119.764.073c-.841,0-1.683-.067-2.519-.067A96.553,96.553,0,0,0,19.687,91.3c-.066,1.292-.131,13.373-.131,20.675a3.386,3.386,0,0,1-.258,1.358L.043,163.852c-.066.192-.066.258.066.386s.258.13.518.13H30.28a4.011,4.011,0,0,1,3.749,4.135v33.014a18.7,18.7,0,0,0,18.865,18.542h.26c2.518-.066,39.215-.131,40.832-.131a3.63,3.63,0,0,1,3.749,2.717l10.4,41.218h85.605c-1.484-5.818-4-16.864-6.332-29.847-4.783-26.427-6.4-48-4.911-64.092,1.1-11.629,11.629-37.731,12.081-38.83.066-.13.13-.192.13-.324a89.65,89.65,0,0,0-2.137-86.828M189.991,98.6l-7.236,18.8a3.789,3.789,0,0,1-3.749,2.454l-9.111-.258a59.582,59.582,0,0,1-11.112,11.695l.648,9.11a3.785,3.785,0,0,1-2.326,3.811l-18.415,8.078a3.842,3.842,0,0,1-4.327-.841l-6.334-6.589a64.307,64.307,0,0,1-16.154.386L106,152.094a3.915,3.915,0,0,1-4.329,1.1l-18.8-7.236a3.789,3.789,0,0,1-2.454-3.749l.258-9.111a59.628,59.628,0,0,1-11.695-11.112l-9.11.648a3.787,3.787,0,0,1-3.811-2.326l-8.076-18.415a3.839,3.839,0,0,1,.84-4.327l6.589-6.334a64.308,64.308,0,0,1-.386-16.154L48.174,69.2a3.918,3.918,0,0,1-1.1-4.329l7.236-18.8a3.791,3.791,0,0,1,3.749-2.454l9.111.258A59.676,59.676,0,0,1,78.282,32.181l-.648-9.11A3.787,3.787,0,0,1,79.96,19.26l18.418-8.137a3.841,3.841,0,0,1,4.327.84l6.334,6.587a64.387,64.387,0,0,1,16.154-.386l5.879-6.85a3.919,3.919,0,0,1,4.327-1.1l18.8,7.236a3.79,3.79,0,0,1,2.454,3.749l-.258,9.111A59.638,59.638,0,0,1,168.09,41.424l9.11-.648a3.785,3.785,0,0,1,3.811,2.327l8.078,18.412a3.841,3.841,0,0,1-.841,4.327l-6.589,6.334a64.232,64.232,0,0,1,.386,16.154l6.85,5.879a3.907,3.907,0,0,1,1.1,4.39" transform="translate(1431.213 2425.731)" fill="#2fc996"/>
  </g>
</svg>
